%TF.GenerationSoftware,KiCad,Pcbnew,9.0.1*%
%TF.CreationDate,2026-03-14T10:33:40-04:00*%
%TF.ProjectId,USB_A_testboard_rev.A01,5553425f-415f-4746-9573-74626f617264,rev?*%
%TF.SameCoordinates,Original*%
%TF.FileFunction,Legend,Bot*%
%TF.FilePolarity,Positive*%
%FSLAX46Y46*%
G04 Gerber Fmt 4.6, Leading zero omitted, Abs format (unit mm)*
G04 Created by KiCad (PCBNEW 9.0.1) date 2026-03-14 10:33:40*
%MOMM*%
%LPD*%
G01*
G04 APERTURE LIST*
%ADD10C,0.000000*%
%ADD11R,1.700000X1.700000*%
%ADD12O,1.700000X1.700000*%
G04 APERTURE END LIST*
D10*
%TO.C,kibuzzard-65ECED21*%
G36*
X127260520Y-77838155D02*
G01*
X127388512Y-77924773D01*
X127476023Y-78052467D01*
X127505194Y-78204569D01*
X127476023Y-78356969D01*
X127388512Y-78485557D01*
X127259925Y-78573068D01*
X127107525Y-78602238D01*
X126917025Y-78602238D01*
X126917025Y-77809282D01*
X127109906Y-77809282D01*
X127260520Y-77838155D01*
G37*
G36*
X126697950Y-77075857D02*
G01*
X128743444Y-77075857D01*
X128917275Y-77075857D01*
X129214931Y-77075857D01*
X129968200Y-78205760D01*
X129214931Y-79335663D01*
X128917275Y-79335663D01*
X126481256Y-79335663D01*
X126183600Y-79335663D01*
X126183600Y-77592588D01*
X126481256Y-77592588D01*
X126481256Y-78823694D01*
X126484828Y-78903466D01*
X126507450Y-78968951D01*
X126574125Y-79022529D01*
X126700331Y-79038007D01*
X127109906Y-79038007D01*
X127274212Y-79022826D01*
X127426612Y-78977285D01*
X127567106Y-78901383D01*
X127695694Y-78795119D01*
X127802999Y-78667723D01*
X127879645Y-78528419D01*
X127925633Y-78377210D01*
X127928878Y-78342682D01*
X128005256Y-78342682D01*
X128019544Y-78449838D01*
X128064787Y-78506988D01*
X128179087Y-78528419D01*
X128745825Y-78528419D01*
X128851791Y-78508774D01*
X128902987Y-78449838D01*
X128917275Y-78340301D01*
X128904178Y-78231954D01*
X128862506Y-78173613D01*
X128743444Y-78152182D01*
X128176706Y-78152182D01*
X128070145Y-78172422D01*
X128017162Y-78233144D01*
X128005256Y-78342682D01*
X127928878Y-78342682D01*
X127940962Y-78214094D01*
X127925633Y-78046588D01*
X127879645Y-77891733D01*
X127802999Y-77749527D01*
X127695694Y-77619973D01*
X127566660Y-77512147D01*
X127424827Y-77435128D01*
X127270194Y-77388917D01*
X127102762Y-77373513D01*
X126697950Y-77373513D01*
X126577697Y-77390182D01*
X126512212Y-77441379D01*
X126487209Y-77508054D01*
X126481256Y-77592588D01*
X126183600Y-77592588D01*
X126183600Y-77075857D01*
X126481256Y-77075857D01*
X126697950Y-77075857D01*
G37*
%TO.C,kibuzzard-65ECED44*%
G36*
X128394992Y-72676964D02*
G01*
X128522984Y-72763582D01*
X128610495Y-72891276D01*
X128639666Y-73043379D01*
X128610495Y-73195779D01*
X128522984Y-73324366D01*
X128394397Y-73411877D01*
X128241997Y-73441047D01*
X128051497Y-73441047D01*
X128051497Y-72648091D01*
X128244378Y-72648091D01*
X128394992Y-72676964D01*
G37*
G36*
X125163041Y-71888473D02*
G01*
X126234603Y-71888473D01*
X127832422Y-71888473D01*
X129075434Y-71888473D01*
X129373091Y-71888473D01*
X130144616Y-73045760D01*
X129373091Y-74203047D01*
X129075434Y-74203047D01*
X124324841Y-74203047D01*
X124027184Y-74203047D01*
X124027184Y-73067191D01*
X124324841Y-73067191D01*
X124340542Y-73233656D01*
X124387646Y-73387767D01*
X124466153Y-73529526D01*
X124576063Y-73658932D01*
X124707999Y-73766758D01*
X124852585Y-73843776D01*
X125009822Y-73889988D01*
X125179709Y-73905391D01*
X125303237Y-73896759D01*
X125435694Y-73870863D01*
X125561007Y-73829489D01*
X125663103Y-73774422D01*
X125729778Y-73726798D01*
X125773831Y-73676791D01*
X125796453Y-73607735D01*
X125741684Y-73474385D01*
X125653578Y-73379730D01*
X125565472Y-73348179D01*
X125436884Y-73402947D01*
X125314845Y-73452954D01*
X125167803Y-73469623D01*
X125011236Y-73440155D01*
X124879672Y-73351751D01*
X124790375Y-73220484D01*
X124760609Y-73062429D01*
X124791566Y-72899313D01*
X124884434Y-72757629D01*
X125018380Y-72659402D01*
X125172566Y-72626660D01*
X125309488Y-72634399D01*
X125410691Y-72657616D01*
X125410691Y-72862404D01*
X125234478Y-72862404D01*
X125170184Y-72865976D01*
X125120178Y-72885026D01*
X125079697Y-72940985D01*
X125067791Y-73048141D01*
X125080888Y-73152916D01*
X125124941Y-73208876D01*
X125177328Y-73227926D01*
X125241622Y-73231497D01*
X125658341Y-73231497D01*
X125750019Y-73214829D01*
X125805978Y-73183872D01*
X125834553Y-73136248D01*
X125845269Y-73083860D01*
X125846459Y-73024329D01*
X125846459Y-72536172D01*
X125801733Y-72429016D01*
X126020291Y-72429016D01*
X126020291Y-73664885D01*
X126025053Y-73744657D01*
X126048866Y-73807760D01*
X126114350Y-73858957D01*
X126239366Y-73874435D01*
X126347713Y-73860147D01*
X126408434Y-73830382D01*
X126451297Y-73781566D01*
X127046609Y-72981466D01*
X127046609Y-73664885D01*
X127051372Y-73743466D01*
X127075184Y-73806569D01*
X127141859Y-73857766D01*
X127265684Y-73874435D01*
X127389509Y-73857766D01*
X127456184Y-73802997D01*
X127478806Y-73737513D01*
X127482378Y-73655360D01*
X127482378Y-72431397D01*
X127615728Y-72431397D01*
X127615728Y-73662504D01*
X127619300Y-73742276D01*
X127641922Y-73807760D01*
X127708597Y-73861338D01*
X127834803Y-73876816D01*
X128244378Y-73876816D01*
X128408684Y-73861636D01*
X128561084Y-73816094D01*
X128701578Y-73740192D01*
X128830166Y-73633929D01*
X128937471Y-73506532D01*
X129014117Y-73367229D01*
X129060105Y-73216019D01*
X129075434Y-73052904D01*
X129060105Y-72885398D01*
X129014117Y-72730542D01*
X128937471Y-72588337D01*
X128830166Y-72458782D01*
X128701132Y-72350956D01*
X128559298Y-72273937D01*
X128404666Y-72227726D01*
X128237234Y-72212322D01*
X127832422Y-72212322D01*
X127712169Y-72228991D01*
X127646684Y-72280188D01*
X127621681Y-72346863D01*
X127615728Y-72431397D01*
X127482378Y-72431397D01*
X127482378Y-72426635D01*
X127478806Y-72344482D01*
X127456184Y-72280188D01*
X127389509Y-72226610D01*
X127263303Y-72209941D01*
X127140669Y-72223038D01*
X127070422Y-72274235D01*
X126453678Y-73088623D01*
X126453678Y-72426635D01*
X126450106Y-72344482D01*
X126427484Y-72280188D01*
X126360809Y-72226610D01*
X126234603Y-72209941D01*
X126111969Y-72226610D01*
X126047675Y-72280188D01*
X126025053Y-72345673D01*
X126020291Y-72429016D01*
X125801733Y-72429016D01*
X125789309Y-72399251D01*
X125722039Y-72334064D01*
X125634528Y-72278998D01*
X125502766Y-72227404D01*
X125345603Y-72196447D01*
X125163041Y-72186129D01*
X124997544Y-72202351D01*
X124843953Y-72251018D01*
X124702269Y-72332129D01*
X124572491Y-72445685D01*
X124464144Y-72581863D01*
X124386753Y-72730840D01*
X124340319Y-72892616D01*
X124324841Y-73067191D01*
X124027184Y-73067191D01*
X124027184Y-71888473D01*
X124324841Y-71888473D01*
X125163041Y-71888473D01*
G37*
%TO.C,kibuzzard-65ECED2E*%
G36*
X127255270Y-75258155D02*
G01*
X127383262Y-75344773D01*
X127470773Y-75472467D01*
X127499944Y-75624569D01*
X127470773Y-75776969D01*
X127383262Y-75905557D01*
X127254675Y-75993068D01*
X127102275Y-76022238D01*
X126911775Y-76022238D01*
X126911775Y-75229282D01*
X127104656Y-75229282D01*
X127255270Y-75258155D01*
G37*
G36*
X126692700Y-74495857D02*
G01*
X128552456Y-74495857D01*
X129102525Y-74495857D01*
X129400181Y-74495857D01*
X130153450Y-75625760D01*
X129400181Y-76755663D01*
X129102525Y-76755663D01*
X126476006Y-76755663D01*
X126178350Y-76755663D01*
X126178350Y-75012588D01*
X126476006Y-75012588D01*
X126476006Y-76243694D01*
X126479578Y-76323466D01*
X126502200Y-76388951D01*
X126568875Y-76442529D01*
X126695081Y-76458007D01*
X127104656Y-76458007D01*
X127268962Y-76442826D01*
X127421362Y-76397285D01*
X127561856Y-76321383D01*
X127690444Y-76215119D01*
X127797749Y-76087723D01*
X127874395Y-75948419D01*
X127920383Y-75797210D01*
X127935712Y-75634094D01*
X127920383Y-75466588D01*
X127906483Y-75419782D01*
X128002388Y-75419782D01*
X128017866Y-75534082D01*
X128067872Y-75593613D01*
X128128594Y-75613854D01*
X128202412Y-75617426D01*
X128357194Y-75617426D01*
X128357194Y-75774588D01*
X128360766Y-75847216D01*
X128381006Y-75905557D01*
X128440538Y-75953182D01*
X128554838Y-75967469D01*
X128666756Y-75951991D01*
X128726287Y-75903176D01*
X128746528Y-75844835D01*
X128750100Y-75772207D01*
X128750100Y-75617426D01*
X128907263Y-75617426D01*
X128979891Y-75613854D01*
X129038231Y-75593613D01*
X129087047Y-75532891D01*
X129102525Y-75417401D01*
X129088237Y-75305482D01*
X129041803Y-75245951D01*
X128987034Y-75225710D01*
X128919169Y-75222138D01*
X128750100Y-75222138D01*
X128750100Y-75064976D01*
X128746528Y-74992348D01*
X128726287Y-74934007D01*
X128666756Y-74885191D01*
X128552456Y-74869713D01*
X128440538Y-74885191D01*
X128381006Y-74935198D01*
X128360766Y-74994729D01*
X128357194Y-75067357D01*
X128357194Y-75222138D01*
X128185744Y-75222138D01*
X128117878Y-75225710D01*
X128063109Y-75245951D01*
X128016675Y-75305482D01*
X128002388Y-75419782D01*
X127906483Y-75419782D01*
X127874395Y-75311733D01*
X127797749Y-75169527D01*
X127690444Y-75039973D01*
X127561410Y-74932147D01*
X127419577Y-74855128D01*
X127264944Y-74808917D01*
X127097512Y-74793513D01*
X126692700Y-74793513D01*
X126572447Y-74810182D01*
X126506963Y-74861379D01*
X126481959Y-74928054D01*
X126476006Y-75012588D01*
X126178350Y-75012588D01*
X126178350Y-74495857D01*
X126476006Y-74495857D01*
X126692700Y-74495857D01*
G37*
%TO.C,kibuzzard-65ECED05*%
G36*
X125499162Y-79702519D02*
G01*
X126644544Y-79702519D01*
X128128062Y-79702519D01*
X128947212Y-79702519D01*
X129244869Y-79702519D01*
X130020363Y-80865760D01*
X129244869Y-82029001D01*
X128947212Y-82029001D01*
X124949094Y-82029001D01*
X124651437Y-82029001D01*
X124651437Y-80659782D01*
X124949094Y-80659782D01*
X124964572Y-80774082D01*
X125014578Y-80833613D01*
X125075300Y-80853854D01*
X125149119Y-80857426D01*
X125303900Y-80857426D01*
X125303900Y-81014588D01*
X125307472Y-81087216D01*
X125327713Y-81145557D01*
X125387244Y-81193182D01*
X125501544Y-81207469D01*
X125613463Y-81191991D01*
X125672994Y-81143176D01*
X125693234Y-81084835D01*
X125696806Y-81012207D01*
X125696806Y-80857426D01*
X125853969Y-80857426D01*
X125926597Y-80853854D01*
X125984938Y-80833613D01*
X126033753Y-80772891D01*
X126049231Y-80657401D01*
X126034944Y-80545482D01*
X125988509Y-80485951D01*
X125933741Y-80465710D01*
X125865875Y-80462138D01*
X125696806Y-80462138D01*
X125696806Y-80312119D01*
X126094475Y-80312119D01*
X126182581Y-80474044D01*
X126330219Y-80555007D01*
X126492144Y-80476426D01*
X126630256Y-80438326D01*
X126744556Y-80474044D01*
X126785038Y-80574057D01*
X126742175Y-80672879D01*
X126637400Y-80712169D01*
X126544531Y-80678832D01*
X126411181Y-80621682D01*
X126256400Y-80669307D01*
X126150434Y-80740744D01*
X126120669Y-80809801D01*
X126208775Y-81486076D01*
X126220681Y-81552751D01*
X126248066Y-81618235D01*
X126314741Y-81681338D01*
X126427850Y-81702769D01*
X126973156Y-81700388D01*
X127055309Y-81695626D01*
X127119603Y-81673004D01*
X127173181Y-81606329D01*
X127179298Y-81558704D01*
X127325581Y-81558704D01*
X127458931Y-81671813D01*
X127637525Y-81707532D01*
X127747062Y-81571801D01*
X128123300Y-80645494D01*
X128499537Y-81571801D01*
X128611456Y-81706341D01*
X128787669Y-81671813D01*
X128924591Y-81557513D01*
X128897206Y-81393207D01*
X128332850Y-80152576D01*
X128250697Y-80065660D01*
X128128062Y-80033513D01*
X127994713Y-80063279D01*
X127913750Y-80152576D01*
X127349394Y-81393207D01*
X127325581Y-81558704D01*
X127179298Y-81558704D01*
X127189850Y-81476551D01*
X127174372Y-81357488D01*
X127123175Y-81294385D01*
X127061263Y-81272954D01*
X126985063Y-81269382D01*
X126618350Y-81269382D01*
X126601681Y-81143176D01*
X126642162Y-81147938D01*
X126654069Y-81147938D01*
X126798796Y-81129285D01*
X126931352Y-81073326D01*
X127051737Y-80980060D01*
X127146988Y-80862188D01*
X127204138Y-80732410D01*
X127223188Y-80590726D01*
X127204667Y-80432902D01*
X127149104Y-80292805D01*
X127056500Y-80170435D01*
X126936644Y-80075846D01*
X126799325Y-80019093D01*
X126644544Y-80000176D01*
X126515956Y-80010594D01*
X126396894Y-80041847D01*
X126234969Y-80124001D01*
X126184962Y-80166863D01*
X126094475Y-80312119D01*
X125696806Y-80312119D01*
X125696806Y-80304976D01*
X125693234Y-80232347D01*
X125672994Y-80174007D01*
X125613463Y-80125191D01*
X125499162Y-80109713D01*
X125387244Y-80125191D01*
X125327713Y-80175197D01*
X125307472Y-80234729D01*
X125303900Y-80307357D01*
X125303900Y-80462138D01*
X125132450Y-80462138D01*
X125064584Y-80465710D01*
X125009816Y-80485951D01*
X124963381Y-80545482D01*
X124949094Y-80659782D01*
X124651437Y-80659782D01*
X124651437Y-79702519D01*
X124949094Y-79702519D01*
X125499162Y-79702519D01*
G37*
%TD*%
%LPC*%
D11*
%TO.C,J2*%
X131580000Y-80670000D03*
D12*
X131580000Y-78130000D03*
X131580000Y-75590000D03*
X131580000Y-73050000D03*
%TD*%
%LPD*%
M02*
