%TF.GenerationSoftware,KiCad,Pcbnew,9.0.1*%
%TF.CreationDate,2026-03-14T10:33:40-04:00*%
%TF.ProjectId,USB_A_testboard_rev.A01,5553425f-415f-4746-9573-74626f617264,rev?*%
%TF.SameCoordinates,Original*%
%TF.FileFunction,Legend,Top*%
%TF.FilePolarity,Positive*%
%FSLAX46Y46*%
G04 Gerber Fmt 4.6, Leading zero omitted, Abs format (unit mm)*
G04 Created by KiCad (PCBNEW 9.0.1) date 2026-03-14 10:33:40*
%MOMM*%
%LPD*%
G01*
G04 APERTURE LIST*
G04 Aperture macros list*
%AMRoundRect*
0 Rectangle with rounded corners*
0 $1 Rounding radius*
0 $2 $3 $4 $5 $6 $7 $8 $9 X,Y pos of 4 corners*
0 Add a 4 corners polygon primitive as box body*
4,1,4,$2,$3,$4,$5,$6,$7,$8,$9,$2,$3,0*
0 Add four circle primitives for the rounded corners*
1,1,$1+$1,$2,$3*
1,1,$1+$1,$4,$5*
1,1,$1+$1,$6,$7*
1,1,$1+$1,$8,$9*
0 Add four rect primitives between the rounded corners*
20,1,$1+$1,$2,$3,$4,$5,0*
20,1,$1+$1,$4,$5,$6,$7,0*
20,1,$1+$1,$6,$7,$8,$9,0*
20,1,$1+$1,$8,$9,$2,$3,0*%
G04 Aperture macros list end*
%ADD10C,0.150000*%
%ADD11C,0.120000*%
%ADD12R,1.700000X1.700000*%
%ADD13O,1.700000X1.700000*%
%ADD14RoundRect,0.250000X-3.250000X-0.750000X3.250000X-0.750000X3.250000X0.750000X-3.250000X0.750000X0*%
%ADD15RoundRect,0.250000X-2.750000X-0.500000X2.750000X-0.500000X2.750000X0.500000X-2.750000X0.500000X0*%
G04 APERTURE END LIST*
D10*
X130566666Y-81584819D02*
X130566666Y-82299104D01*
X130566666Y-82299104D02*
X130519047Y-82441961D01*
X130519047Y-82441961D02*
X130423809Y-82537200D01*
X130423809Y-82537200D02*
X130280952Y-82584819D01*
X130280952Y-82584819D02*
X130185714Y-82584819D01*
X130995238Y-81680057D02*
X131042857Y-81632438D01*
X131042857Y-81632438D02*
X131138095Y-81584819D01*
X131138095Y-81584819D02*
X131376190Y-81584819D01*
X131376190Y-81584819D02*
X131471428Y-81632438D01*
X131471428Y-81632438D02*
X131519047Y-81680057D01*
X131519047Y-81680057D02*
X131566666Y-81775295D01*
X131566666Y-81775295D02*
X131566666Y-81870533D01*
X131566666Y-81870533D02*
X131519047Y-82013390D01*
X131519047Y-82013390D02*
X130947619Y-82584819D01*
X130947619Y-82584819D02*
X131566666Y-82584819D01*
X131384819Y-77273333D02*
X132099104Y-77273333D01*
X132099104Y-77273333D02*
X132241961Y-77320952D01*
X132241961Y-77320952D02*
X132337200Y-77416190D01*
X132337200Y-77416190D02*
X132384819Y-77559047D01*
X132384819Y-77559047D02*
X132384819Y-77654285D01*
X132384819Y-76273333D02*
X132384819Y-76844761D01*
X132384819Y-76559047D02*
X131384819Y-76559047D01*
X131384819Y-76559047D02*
X131527676Y-76654285D01*
X131527676Y-76654285D02*
X131622914Y-76749523D01*
X131622914Y-76749523D02*
X131670533Y-76844761D01*
D11*
%TO.C,J2*%
X130250000Y-79400000D02*
X130250000Y-71720000D01*
X132910000Y-71720000D02*
X130250000Y-71720000D01*
X132910000Y-79400000D02*
X130250000Y-79400000D01*
X132910000Y-79400000D02*
X132910000Y-71720000D01*
X132910000Y-80670000D02*
X132910000Y-82000000D01*
X132910000Y-82000000D02*
X131580000Y-82000000D01*
%TD*%
%LPC*%
D12*
%TO.C,J2*%
X131580000Y-80670000D03*
D13*
X131580000Y-78130000D03*
X131580000Y-75590000D03*
X131580000Y-73050000D03*
%TD*%
D14*
%TO.C,J1*%
X125410000Y-80590000D03*
D15*
X125410000Y-77840000D03*
X125410000Y-75840000D03*
D14*
X125410000Y-73090000D03*
%TD*%
%LPD*%
M02*
